<svg width="47" height="47" viewBox="0 0 47 47" fill="none" xmlns="http://www.w3.org/2000/svg">
<path d="M1.14613 13.4215C1.2569 11.001 1.6359 9.43989 2.14845 8.11478L2.15534 8.09648C2.66325 6.74804 3.45891 5.5265 4.48695 4.51684L4.50137 4.50268L4.51554 4.48826C5.52602 3.45889 6.74801 2.66401 8.09526 2.15745L8.11849 2.14857C9.44059 1.63441 10.9986 1.25681 13.4212 1.14606M1.14613 13.4215C1.02968 16.0077 1 16.8094 1 23.5149C1 30.2218 1.02804 31.0216 1.14606 33.6084M1.14613 13.4215V14.0739M13.4212 1.14606C16.008 1.02804 16.8094 1 23.5147 1C30.2202 1 31.0212 1.02965 33.6073 1.14608M13.4212 1.14606H14.0752M1.14606 33.6084C1.25681 36.0311 1.6344 37.589 2.14856 38.9111L2.15745 38.9345M1.14606 33.6084L1.18573 33.8173M1.14606 33.6084V32.9545M1.14613 14.0739C1.15518 13.8666 1.16494 13.6506 1.17538 13.4208C1.29676 10.7724 1.74698 9.22505 2.17611 8.12753C2.7315 6.69421 3.43504 5.61264 4.50988 4.53335C5.53152 3.48533 6.77349 2.67772 8.14578 2.16901C9.23844 1.7452 10.7817 1.29634 13.4201 1.17541C13.6506 1.16494 13.8673 1.15516 14.0752 1.14606M1.14613 14.0739C1.05028 16.2655 1.02968 17.4745 1.02968 23.5149C1.02968 29.5532 1.05028 30.7639 1.14606 32.9545M1.14613 14.0739L1.14606 32.9545M2.15745 38.9345C2.664 40.2817 3.45889 41.5036 4.48825 42.5142L4.50265 42.5284L4.51679 42.5426C5.5265 43.5707 6.74808 44.3665 8.09651 44.8743L8.11664 44.8819C9.43995 45.3951 10.9987 45.7729 13.4212 45.8837M2.15745 38.9345L2.12708 38.7744M2.12708 38.7744L1.18573 33.8173M2.12708 38.7744C1.72727 37.7183 1.31559 36.2445 1.18573 33.8173M2.12708 38.7744C2.1411 38.8116 2.1551 38.8481 2.1691 38.8841C2.67611 40.2509 3.47945 41.4886 4.52141 42.508C5.54052 43.5499 6.77768 44.353 8.14407 44.8601C9.2406 45.2871 10.7857 45.7336 13.4208 45.8543C16.08 45.9754 16.9016 46 23.5147 46C30.128 46 30.9504 45.9754 33.6096 45.8543C36.2478 45.7333 37.7911 45.2845 38.8839 44.8608C40.2509 44.3539 41.4889 43.5503 42.5082 42.508C43.5499 41.4889 44.353 40.2518 44.8601 38.8855C45.2871 37.7889 45.7336 36.244 45.8541 33.6089C45.9751 30.9496 46 30.1264 46 23.5149C46 16.9033 45.9751 16.0794 45.8541 13.4201C45.7326 10.768 45.2798 9.2224 44.8539 8.12876C44.2973 6.69184 43.5916 5.60509 42.5066 4.52011C41.4237 3.43945 40.34 2.73319 38.9019 2.17602C37.8043 1.74693 36.2578 1.29679 33.6096 1.17541C33.3792 1.16494 33.1627 1.15518 32.955 1.14608M1.18573 33.8173C1.18206 33.7489 1.17863 33.6797 1.1754 33.6096C1.16494 33.3792 1.15516 33.1624 1.14606 32.9545M32.955 1.14608H33.6073M32.955 1.14608L14.0752 1.14606M32.955 1.14608C30.7642 1.05031 29.5537 1.02968 23.5147 1.02968C17.4763 1.02968 16.2657 1.05028 14.0752 1.14606M33.6073 1.14608C36.0283 1.25683 37.5895 1.63578 38.9149 2.14838L38.9331 2.15534C40.2815 2.66325 41.5031 3.45892 42.5127 4.48696L42.5267 4.50124L42.5412 4.51526C43.5693 5.52499 44.3648 6.74688 44.8724 8.0957L44.8809 8.1185C45.3951 9.4406 45.7729 10.9986 45.8835 13.4212M45.8835 33.6084C45.7729 36.0308 45.3951 37.5897 44.8819 38.913L44.8743 38.9331C44.3663 40.2817 43.5707 41.5031 42.5426 42.5127L42.5281 42.5269L42.5142 42.5414C41.5036 43.5707 40.2817 44.3656 38.9343 44.8722L38.9111 44.8812C37.589 45.3953 36.0309 45.7729 33.6084 45.8837M19.5104 33.1823C20.7799 33.7081 22.1406 33.9788 23.5147 33.9788C26.29 33.9788 28.9517 32.8763 30.9141 30.9141C32.8764 28.9516 33.9789 26.29 33.9789 23.5149C33.9789 20.7396 32.8764 18.078 30.9141 16.1156C28.9517 14.1532 26.29 13.0508 23.5147 13.0508C22.1406 13.0508 20.7799 13.3214 19.5104 13.8473C18.2407 14.3732 17.0873 15.1439 16.1156 16.1156C15.144 17.0873 14.3732 18.2408 13.8473 19.5104C13.3214 20.7799 13.0508 22.1408 13.0508 23.5149C13.0508 24.8891 13.3214 26.2497 13.8473 27.5192C14.3732 28.7889 15.144 29.9423 16.1156 30.9141C17.0873 31.8856 18.2407 32.6566 19.5104 33.1823ZM16.0923 16.0923C18.061 14.1237 20.7309 13.0178 23.5147 13.0178C26.2988 13.0178 28.9687 14.1237 30.9373 16.0923C32.906 18.0609 34.0118 20.7308 34.0118 23.5149C34.0118 26.2988 32.906 28.9687 30.9373 30.9373C28.9687 32.9059 26.2988 34.0118 23.5147 34.0118C20.7309 34.0118 18.061 32.9059 16.0923 30.9373C14.1237 28.9687 13.0178 26.2988 13.0178 23.5149C13.0178 20.7308 14.1237 18.0609 16.0923 16.0923ZM39.9226 10.5738C39.9226 11.3707 39.606 12.1349 39.0428 12.6983C38.4793 13.2618 37.715 13.5783 36.9183 13.5783C36.1213 13.5783 35.3573 13.2618 34.7938 12.6983C34.2304 12.1349 33.9137 11.3707 33.9137 10.5738C33.9137 9.77701 34.2304 9.01282 34.7938 8.44939C35.3573 7.88595 36.1213 7.56941 36.9183 7.56941C37.715 7.56941 38.4793 7.88595 39.0428 8.44939C39.606 9.01282 39.9226 9.77701 39.9226 10.5738Z" stroke="black" stroke-width="1.5" stroke-linejoin="round"/>
</svg>
